<?xml version="1.0" encoding="utf-8"?>
<!-- Generator: Adobe Illustrator 23.1.1, SVG Export Plug-In . SVG Version: 6.00 Build 0)  -->
<svg version="1.0" id="Layer_1" xmlns="http://www.w3.org/2000/svg" xmlns:xlink="http://www.w3.org/1999/xlink" x="0px" y="0px"
	 viewBox="0 0 1026.99 210.3" style="enable-background:new 0 0 1026.99 210.3;" xml:space="preserve">
<g>
	<g>
		<defs>
			<rect id="SVGID_1_" width="1026.99" height="210.3"/>
		</defs>
		<clipPath id="SVGID_2_">
			<use xlink:href="#SVGID_1_"  style="overflow:visible;"/>
		</clipPath>
		<path style="clip-path:url(#SVGID_2_);" d="M162.57,90.26c0.13-4.47,0.44-7.79,0.92-9.89c0.46-2.01,1.14-3.22,2.03-3.59
			c0.95-0.4,2.23-0.6,3.81-0.6h2.05c1.01,0,1.11-0.63,1.11-0.91c0-0.27-0.11-0.91-1.11-0.91c-0.52,0-1.55-0.04-3.06-0.13
			c-1.52-0.09-3.14-0.21-4.83-0.36s-3.28-0.27-4.72-0.36c-1.46-0.09-2.43-0.13-2.97-0.13c-1.35,0-2.71,1.19-4.15,3.65
			c-1.36,2.31-3.58,5.96-6.61,10.86l-26.86,41.83L86.19,82.66c-0.95-1.34-1.98-2.85-3.06-4.49c-1.08-1.64-1.84-2.9-2.26-3.74
			c-0.31-0.68-0.86-1.03-1.6-1.03c-0.28,0-0.67,0.04-1.2,0.14c-0.49,0.09-1.34,0.21-2.53,0.36c-1.18,0.15-2.85,0.27-4.97,0.36
			c-2.11,0.09-4.94,0.13-8.41,0.13c-0.94,0-1.04,0.54-1.04,0.78c0,0.27,0.1,0.91,1.04,0.91h0.65c1.62,0,3.15,0.52,4.54,1.54
			c1.44,1.05,2.75,2.21,3.9,3.44c1.12,1.28,1.68,3.14,1.68,5.53v8.22c0,3.56-0.02,7.48-0.07,11.98c-0.04,4.31-0.07,8.82-0.07,13.38
			v12.57c0,7.87-0.25,14.1-0.75,18.54c-0.49,4.41-1.17,7.74-2,9.88c-0.81,2.08-1.79,3.4-2.9,3.9c-1.15,0.52-2.48,0.79-3.95,0.79
			h-0.78c-0.51,0-0.85,0.11-1.05,0.34c-0.1,0.11-0.2,0.31-0.15,0.62c0.09,0.55,0.47,0.85,1.07,0.85c1.87,0,3.92-0.07,6.09-0.2
			c2.17-0.13,3.76-0.2,4.75-0.2c0.52,0,1.54,0.02,3.06,0.07c1.52,0.04,3.19,0.11,5.02,0.2c1.8,0.09,3.62,0.13,5.4,0.13h4.15
			c0.61,0,0.97-0.34,0.97-0.91s-0.36-0.91-0.97-0.91h-1.89c-1.03,0-2.1-0.08-3.19-0.22c-1.07-0.15-2.14-0.52-3.18-1.11
			c-1.04-0.58-2.02-1.56-2.93-2.9c-0.91-1.35-1.7-3.28-2.34-5.71c-0.65-2.46-1.16-5.58-1.52-9.29c-0.37-3.71-0.56-8.38-0.56-13.87
			l0.13-47.15l36.22,52.79c0.41,0.72,0.85,1.08,1.32,1.08H114c0.6,0,1.11-0.36,1.51-1.06l31.53-49.34c1.95-2.94,3.31-4.91,4.06-5.85
			c0.16-0.2,0.25-0.25,0.26-0.27c0.06,0.06,0.31,0.43,0.31,2.49v47.33c0,8.14-0.07,14.54-0.2,19.02c-0.13,4.46-0.45,7.79-0.95,9.89
			c-0.48,2.02-1.17,3.23-2.06,3.6c-0.95,0.4-2.23,0.6-3.81,0.6h-2.71c-1.01,0-1.11,0.63-1.11,0.91c0,0.34,0.16,0.91,1.23,0.91
			c0.92,0,2.14-0.02,3.66-0.07l4.53-0.13c1.5-0.04,2.88-0.09,4.12-0.13c1.24-0.04,2.12-0.07,2.63-0.07c0.43,0,1.23,0.02,2.4,0.07
			c1.18,0.04,2.5,0.09,3.95,0.13l4.32,0.13c1.41,0.04,2.65,0.07,3.67,0.07c1,0,1.11-0.63,1.11-0.91c0-0.27-0.11-0.91-1.11-0.91
			h-2.05c-1.58,0-2.87-0.2-3.81-0.6c-0.89-0.37-1.57-1.58-2.03-3.59c-0.48-2.1-0.79-5.43-0.92-9.89c-0.13-4.45-0.2-10.85-0.2-19.02
			v-23.43C162.37,101.11,162.44,94.71,162.57,90.26"/>
	</g>
	<g>
		<defs>
			<rect id="SVGID_3_" width="1026.99" height="210.3"/>
		</defs>
		<clipPath id="SVGID_4_">
			<use xlink:href="#SVGID_3_"  style="overflow:visible;"/>
		</clipPath>
		<path style="clip-path:url(#SVGID_4_);" d="M191.39,87.93c2.02,0,3.78-0.7,5.22-2.08c1.44-1.38,2.18-3.12,2.18-5.16
			c0-2.04-0.73-3.8-2.17-5.25s-3.2-2.18-5.23-2.18c-2.05,0-3.8,0.74-5.19,2.19c-1.39,1.45-2.09,3.21-2.09,5.25s0.7,3.77,2.09,5.16
			C187.59,87.23,189.34,87.93,191.39,87.93"/>
	</g>
	<g>
		<defs>
			<rect id="SVGID_5_" width="1026.99" height="210.3"/>
		</defs>
		<clipPath id="SVGID_6_">
			<use xlink:href="#SVGID_5_"  style="overflow:visible;"/>
		</clipPath>
		<path style="clip-path:url(#SVGID_6_);" d="M204.99,165.82c-1.83,0-3.28-0.16-4.31-0.48c-0.99-0.3-1.72-0.89-2.23-1.81
			c-0.52-0.93-0.85-2.27-0.97-3.98c-0.13-1.75-0.2-4.08-0.2-6.93v-52.59c0-0.76-0.98-1.05-1.3-1.15c-0.87-0.26-1.38-0.26-1.6-0.02
			c-2.55,1.72-5.14,3.24-7.71,4.53c-2.55,1.28-5.55,2.28-8.95,2.98c-0.66,0.23-0.8,0.63-0.8,0.93c0,0.1,0.03,0.21,0.1,0.34l0,0
			c0.14,0.29,0.51,0.74,1.35,0.52c1.64-0.41,3.01-0.64,4.08-0.68c1.01-0.05,1.81,0.2,2.4,0.73c0.6,0.54,1.04,1.5,1.31,2.86
			c0.28,1.41,0.42,3.37,0.42,5.82v35.73c0,2.81-0.08,5.13-0.23,6.9c-0.15,1.74-0.48,3.09-0.98,4.02c-0.48,0.91-1.22,1.5-2.26,1.8
			c-1.07,0.32-2.55,0.48-4.38,0.48c-0.43,0-0.74,0.1-0.93,0.31c-0.1,0.11-0.22,0.31-0.21,0.62c0.02,0.27,0.16,0.89,1.14,0.89
			c0.97,0,2.14-0.02,3.47-0.06c2.75-0.09,5.52-0.05,7.63-0.13c1.07-0.04,1.87-0.07,2.39-0.07c0.51,0,1.28,0.02,2.29,0.07
			c1.98,0.08,4.57,0.04,7.1,0.13c1.23,0.04,2.36,0.06,3.37,0.06c1,0,1.1-0.63,1.1-0.91C206.1,166.45,205.99,165.82,204.99,165.82"/>
	</g>
	<g>
		<defs>
			<rect id="SVGID_7_" width="1026.99" height="210.3"/>
		</defs>
		<clipPath id="SVGID_8_">
			<use xlink:href="#SVGID_7_"  style="overflow:visible;"/>
		</clipPath>
		<path style="clip-path:url(#SVGID_8_);" d="M282.03,165.82c-1.13,0-2.08-0.07-2.82-0.22c-0.69-0.14-1.27-0.53-1.76-1.21
			c-0.5-0.69-0.86-1.83-1.06-3.38c-0.21-1.58-0.32-3.88-0.32-6.81v-27.94c0-5.27-0.59-9.71-1.76-13.19
			c-1.17-3.49-2.78-6.34-4.79-8.47c-2.02-2.14-4.39-3.65-7.06-4.49c-2.65-0.83-5.55-1.26-8.62-1.26c-5.21,0-9.87,1.32-13.86,3.94
			c-3.77,2.47-7.33,5.86-10.59,10.08c-0.25-2.5-0.88-4.86-1.9-7.04c-1.13-2.42-2.35-4.29-3.68-5.6c-0.65-0.48-1.04-0.27-1.21-0.1
			c-1.16,1.15-2.76,2.26-4.77,3.31c-2.03,1.05-3.68,1.81-4.96,2.25c-0.31,0.16-0.41,0.37-0.43,0.52c-0.04,0.25,0.07,0.51,0.35,0.79
			c1.5,1.42,2.92,2.98,4.21,4.66c1.26,1.63,1.89,3.41,1.89,5.29v34.47c0,3.29-0.05,5.92-0.16,7.82c-0.11,1.87-0.35,3.32-0.72,4.31
			c-0.36,0.94-0.88,1.55-1.6,1.84c-0.76,0.31-1.83,0.47-3.21,0.47c-0.99,0-1.1,0.64-1.1,0.91s0.11,0.91,1.1,0.91
			c1.01,0,2.14-0.02,3.36-0.06c2.52-0.09,5.15-0.05,7.17-0.13c1.02-0.04,1.8-0.07,2.32-0.07s1.29,0.02,2.32,0.07
			c2.01,0.08,4.22,0.04,6.07,0.13c0.91,0.04,1.5,0.07,1.76,0.07c0.99,0,1.1-0.63,1.1-0.91c0-0.27-0.11-0.91-1.1-0.91h-6.61v-50.42
			c3.07-4.08,6.14-7.13,9.14-9.04c3-1.92,6.59-2.89,10.68-2.89c1.99,0,3.96,0.36,5.85,1.06c1.87,0.7,3.56,1.89,5.02,3.53
			c1.46,1.66,2.67,3.89,3.58,6.65c0.92,2.76,1.39,6.21,1.39,10.25l0.13,28.46c0,2.93-0.11,5.26-0.32,6.91
			c-0.21,1.62-0.58,2.85-1.09,3.65c-0.5,0.79-1.14,1.28-1.93,1.5c-0.84,0.23-1.93,0.35-3.24,0.35c-0.43,0-0.73,0.1-0.93,0.31
			c-0.1,0.11-0.23,0.31-0.21,0.62c0.01,0.27,0.15,0.89,1.13,0.89c0.97,0,2.01-0.02,3.11-0.06c2.26-0.09,4.55-0.05,6.23-0.13
			c0.85-0.04,1.54-0.06,2.07-0.06s1.39,0.02,2.6,0.07c2.37,0.08,5.11,0.04,7.26,0.13c1.06,0.04,1.72,0.06,1.98,0.06
			c0.99,0,1.09-0.63,1.09-0.91C283.12,166.45,283.01,165.82,282.03,165.82"/>
	</g>
	<g>
		<defs>
			<rect id="SVGID_9_" width="1026.99" height="210.3"/>
		</defs>
		<clipPath id="SVGID_10_">
			<use xlink:href="#SVGID_9_"  style="overflow:visible;"/>
		</clipPath>
		<path style="clip-path:url(#SVGID_10_);" d="M364.72,165.82c-1.64,0-2.9-0.16-3.74-0.47c-0.81-0.3-1.4-0.9-1.83-1.85
			c-0.43-0.98-0.7-2.43-0.78-4.29c-0.09-1.89-0.13-4.52-0.13-7.82V59.51c-0.06-0.5-0.55-0.86-1.47-1.12
			c-0.86-0.26-1.4-0.3-1.73-0.02c-2.29,1.26-4.73,2.46-7.25,3.56c-2.52,1.11-5.48,1.98-8.79,2.58c-0.91,0.15-1.04,0.71-1.04,1.03
			c0,0.33,0.14,0.52,0.26,0.62c0.2,0.17,0.5,0.22,0.9,0.16c1.67-0.29,3.07-0.45,4.17-0.49c1.05-0.04,1.83,0.22,2.42,0.79
			c0.6,0.58,1.06,1.62,1.37,3.1c0.32,1.51,0.48,3.72,0.48,6.56v28.51c-1.95-1.46-4.29-2.8-6.95-3.98c-2.92-1.3-6.22-1.95-9.81-1.95
			c-4.93,0-9.81,0.97-14.5,2.9c-4.69,1.92-8.93,4.61-12.62,7.99s-6.69,7.46-8.91,12.11c-2.22,4.66-3.35,9.83-3.35,15.38
			c0,4.68,0.78,9,2.33,12.85s3.66,7.21,6.29,9.99c2.62,2.78,5.73,4.98,9.23,6.54s7.28,2.35,11.23,2.35c5.29,0,10.46-1.33,15.37-3.96
			c4.61-2.46,8.53-5.91,11.66-10.26c-0.09,3.33-0.25,6.14-0.49,8.35c-0.27,2.49-0.4,3.92-0.4,4.38c0,1.36,0.81,1.56,1.3,1.56
			c0.19,0,0.41-0.02,0.65-0.07c2.19-0.43,4.43-0.76,6.66-0.98c2.21-0.22,5.4-0.32,9.46-0.32c1,0,1.1-0.63,1.1-0.91
			C365.82,166.45,365.71,165.82,364.72,165.82 M347.55,115.42v36c-2.31,3.65-5.28,6.68-8.85,9c-3.58,2.33-7.42,3.51-11.43,3.51
			c-4.1,0-7.73-0.95-10.82-2.82c-3.1-1.88-5.74-4.37-7.86-7.38c-2.12-3.03-3.75-6.49-4.84-10.28c-1.09-3.81-1.65-7.7-1.65-11.56
			c0-9.75,2.08-17.19,6.18-22.09c4.09-4.88,9.75-7.36,16.83-7.36c2.34,0,4.63,0.44,6.82,1.31c2.21,0.88,4.3,1.99,6.23,3.3
			c1.93,1.31,3.69,2.75,5.23,4.27C344.93,112.81,346.31,114.18,347.55,115.42"/>
	</g>
	<g>
		<defs>
			<rect id="SVGID_11_" width="1026.99" height="210.3"/>
		</defs>
		<clipPath id="SVGID_12_">
			<use xlink:href="#SVGID_11_"  style="overflow:visible;"/>
		</clipPath>
		<path style="clip-path:url(#SVGID_12_);" d="M407.76,100.15h-5.11c-2.33,0-4.64,0.02-6.87,0.07c-2.04,0.04-4.06,0.06-6.01,0.07
			c0.11-10.26,1.43-17.8,3.91-22.41c2.47-4.59,5.95-6.91,10.33-6.91c4,0,7.67,0.42,10.92,1.26c3.3,0.85,6.1,1.28,8.34,1.28
			c1.14,0,2.19-0.25,3.12-0.75c0.92-0.5,1.72-1.12,2.37-1.87c0.65-0.74,1.16-1.54,1.52-2.37c0.37-0.85,0.55-1.55,0.55-2.12
			c0-0.56-0.45-1.09-1.37-1.62c-0.82-0.47-1.88-0.86-3.15-1.18c-1.25-0.31-2.73-0.55-4.38-0.72c-1.66-0.18-3.37-0.26-5.06-0.26
			c-3.69,0-7.54,1.02-11.44,3.04c-3.89,2.01-7.6,4.76-11.05,8.18c-3.44,3.42-6.48,7.46-9.02,12.02c-2.5,4.48-4.33,9.33-5.43,14.43
			h-3.34l-4.82,6.61v0.1c0,0.78,0.74,1.17,2.2,1.17h5.11v22.92c0,6.32,0.04,13.57,0.13,21.54c0,2.9-0.04,5.26-0.13,7.03
			c-0.08,1.73-0.37,3.06-0.84,3.95c-0.46,0.86-1.17,1.43-2.16,1.74c-1.03,0.32-2.48,0.48-4.31,0.48c-1,0-1.1,0.64-1.1,0.91
			s0.11,0.91,1.1,0.91c0.97,0,2.12-0.02,3.41-0.06c2.67-0.09,5.22-0.05,7.27-0.13c1.04-0.04,1.83-0.07,2.35-0.07
			c0.52,0,1.32,0.02,2.38,0.07c2.09,0.08,4.74,0.04,7.46,0.13c1.31,0.04,2.49,0.06,3.5,0.06c0.43,0,0.73-0.1,0.93-0.3
			c0.11-0.11,0.23-0.31,0.21-0.62c-0.02-0.27-0.16-0.89-1.14-0.89c-1.93,0-3.46-0.1-4.55-0.29c-1.03-0.18-1.8-0.65-2.34-1.43
			c-0.55-0.8-0.92-2.09-1.09-3.83c-0.17-1.78-0.26-4.35-0.26-7.64c-0.09-6.21-0.13-12.2-0.13-17.82v-26.64
			c2.14,0,4.31,0.02,6.47,0.06c2.23,0.04,4.3,0.07,6.15,0.07h0.14l0.1-0.1c1.43-1.52,2.83-3,4.19-4.44c1.9-1.99,2.14-2.66,2.14-3.03
			C408.96,100.15,408.12,100.15,407.76,100.15"/>
	</g>
	<g>
		<defs>
			<rect id="SVGID_13_" width="1026.99" height="210.3"/>
		</defs>
		<clipPath id="SVGID_14_">
			<use xlink:href="#SVGID_13_"  style="overflow:visible;"/>
		</clipPath>
		<path style="clip-path:url(#SVGID_14_);" d="M483.57,165.82c-1.56,0-2.83-0.14-3.76-0.41c-0.88-0.26-1.51-0.82-1.9-1.71
			c-0.42-0.94-0.7-2.39-0.85-4.3c-0.15-1.94-0.23-4.64-0.23-8.01V100.6c0-0.76-0.96-1.06-1.27-1.15c-0.83-0.28-1.3-0.28-1.6-0.03
			c-2.34,1.21-4.79,2.36-7.29,3.43s-5.48,1.92-8.83,2.52c-0.99,0.15-1.11,0.73-1.09,1.05c0.02,0.33,0.16,0.51,0.28,0.6
			c0.21,0.17,0.51,0.22,0.9,0.15c1.67-0.26,3.06-0.43,4.13-0.52c0.99-0.08,1.76,0.16,2.37,0.73c0.62,0.58,1.06,1.6,1.31,3.02
			c0.26,1.48,0.39,3.67,0.39,6.5v35.47c-3.17,4.17-6.29,7.23-9.3,9.11c-3.01,1.87-6.61,2.82-10.72,2.82c-2.04,0-4.01-0.35-5.84-1.06
			c-1.82-0.7-3.46-1.88-4.87-3.53c-1.43-1.66-2.59-3.87-3.47-6.58c-0.88-2.72-1.33-6.19-1.33-10.31v-42.27
			c-0.06-0.49-0.49-0.85-1.32-1.12c-0.47-0.14-0.79-0.21-1-0.21c-0.24,0-0.43,0.06-0.57,0.19c-2.29,1.2-4.74,2.36-7.29,3.43
			c-2.56,1.07-5.56,1.93-8.92,2.53c-0.92,0.15-1.05,0.71-1.05,1.03c0,0.33,0.14,0.51,0.26,0.61c0.21,0.18,0.5,0.23,0.91,0.16
			c1.69-0.26,3.1-0.43,4.18-0.52c0.99-0.07,1.78,0.16,2.4,0.73c0.63,0.58,1.07,1.6,1.32,3.02c0.26,1.48,0.39,3.66,0.39,6.5v24.61
			c0,5.27,0.56,9.71,1.67,13.19c1.11,3.49,2.65,6.34,4.58,8.47c1.93,2.14,4.27,3.66,6.93,4.5c2.64,0.83,5.53,1.26,8.57,1.26
			c5.14,0,9.8-1.32,13.84-3.93c3.79-2.45,7.35-5.79,10.6-9.96c-0.11,3.27-0.35,6-0.72,8.13c-0.42,2.41-0.63,3.81-0.62,4.3
			c0.05,0.47,0.12,0.82,0.23,1.09c0.1,0.2,0.32,0.44,0.81,0.44c0.16,0,0.33-0.03,0.42-0.07c1.89-0.18,4.23-0.44,6.97-0.79
			c2.73-0.35,6.22-0.52,10.36-0.52c0.61,0,0.97-0.34,0.97-0.91C484.54,166.16,484.18,165.82,483.57,165.82"/>
	</g>
	<g>
		<defs>
			<rect id="SVGID_15_" width="1026.99" height="210.3"/>
		</defs>
		<clipPath id="SVGID_16_">
			<use xlink:href="#SVGID_15_"  style="overflow:visible;"/>
		</clipPath>
		<path style="clip-path:url(#SVGID_16_);" d="M515.68,165.82c-1.84,0-3.28-0.12-4.27-0.35c-0.94-0.22-1.64-0.76-2.14-1.67
			c-0.52-0.93-0.85-2.37-0.97-4.27c-0.13-1.94-0.19-4.68-0.19-8.14V59.51c-0.06-0.49-0.5-0.86-1.33-1.12
			c-0.48-0.15-0.8-0.21-1.01-0.21c-0.24,0-0.43,0.07-0.58,0.19c-2.28,1.26-4.71,2.44-7.21,3.5c-2.51,1.06-5.49,1.91-8.84,2.52
			c-0.92,0.15-1.05,0.71-1.05,1.03c0,0.33,0.14,0.52,0.26,0.62c0.21,0.17,0.5,0.22,0.9,0.16c1.68-0.29,3.06-0.45,4.1-0.49
			c0.98-0.04,1.76,0.24,2.37,0.86c0.62,0.62,1.07,1.68,1.31,3.15c0.26,1.52,0.39,3.73,0.39,6.57v75.11c0,3.28-0.04,5.91-0.13,7.82
			c-0.09,1.87-0.32,3.32-0.7,4.3c-0.36,0.94-0.89,1.55-1.62,1.84c-0.76,0.31-1.85,0.47-3.24,0.47c-1,0-1.1,0.64-1.1,0.91
			s0.11,0.91,1.1,0.91c1.01,0,2.15-0.02,3.37-0.06c2.53-0.09,5.11-0.05,7.15-0.13c1.04-0.04,1.82-0.07,2.34-0.07
			c0.99,0,2.57,0.04,4.82,0.13c2.19,0.09,4.3,0.13,6.28,0.13c1,0,1.1-0.63,1.1-0.91C516.78,166.45,516.67,165.82,515.68,165.82"/>
	</g>
	<g>
		<defs>
			<rect id="SVGID_17_" width="1026.99" height="210.3"/>
		</defs>
		<clipPath id="SVGID_18_">
			<use xlink:href="#SVGID_17_"  style="overflow:visible;"/>
		</clipPath>
		<path style="clip-path:url(#SVGID_18_);" d="M655.94,74.36c-0.77,0-1.71,0.02-2.85,0.07c-2.17,0.09-4.45,0.04-6.27,0.13
			c-0.89,0.04-1.54,0.06-1.98,0.06c-0.52,0-1.52-0.02-2.99-0.06c-3.02-0.09-6.34-0.05-9.14-0.13c-1.44-0.04-2.47-0.07-3.08-0.07
			c-0.86,0-1.35,0.11-1.6,0.35c-0.24,0.24-0.36,0.49-0.35,0.78c0.03,0.4,0.25,1.08,1.3,1.08c0.28,0,0.85-0.09,1.73-0.27
			c0.83-0.17,1.5-0.25,1.99-0.25c2.21,0,3.99,0.58,5.27,1.71c1.29,1.14,1.92,2.61,1.92,4.49c0,1.5-0.14,3.11-0.42,4.78
			c-0.28,1.7-0.67,3.44-1.14,5.19c-0.48,1.78-1.01,3.53-1.59,5.2c-0.59,1.69-1.14,3.26-1.66,4.69l-19.77,51.54
			c-0.29,0.57-0.55,0.61-0.79,0.03l-19.65-50.15c-2.81-6.36-4.96-11.45-6.39-15.13c-1.42-3.66-2.25-6.44-2.46-8.28
			c-0.2-1.73,0.04-2.82,0.73-3.25c0.75-0.47,1.96-0.7,3.58-0.7h2.81c0.41,0,0.68-0.1,0.83-0.32c0.09-0.13,0.18-0.35,0.06-0.69
			c-0.12-0.37-0.45-0.81-1.28-0.81c-1,0-2.31,0.02-3.93,0.07l-4.9,0.13c-1.65,0.04-3.17,0.09-4.54,0.13
			c-1.36,0.04-2.31,0.07-2.83,0.07c-0.56,0-1.37-0.02-2.43-0.07c-1.07-0.04-2.24-0.09-3.53-0.13l-3.85-0.13
			c-1.32-0.04-2.45-0.07-3.44-0.07s-1.1,0.68-1.1,0.97c0,0.32,0.16,0.84,1.23,0.84h1.04c1.65,0,3.03,0.18,4.11,0.54
			c1.04,0.35,2.19,1.34,3.4,2.96c1.24,1.65,2.69,4.32,4.3,7.93c1.63,3.65,3.88,8.75,6.75,15.26l25.54,64.59
			c0.19,0.38,0.65,0.57,1.4,0.57h1.31c0.59,0,1.01-0.18,1.28-0.6L637.11,103c1.17-2.86,2.55-6.05,4.11-9.49
			c1.55-3.43,3.2-6.62,4.89-9.49c2.67-5.21,5.8-7.86,9.31-7.86h0.26c0.57,0,0.98-0.29,1.14-0.76c0.07-0.14,0.1-0.24,0.1-0.34
			C656.92,74.86,656.82,74.36,655.94,74.36"/>
	</g>
	<g>
		<defs>
			<rect id="SVGID_19_" width="1026.99" height="210.3"/>
		</defs>
		<clipPath id="SVGID_20_">
			<use xlink:href="#SVGID_19_"  style="overflow:visible;"/>
		</clipPath>
		<path style="clip-path:url(#SVGID_20_);" d="M721.09,108.08c-2.91-2.94-6.4-5.25-10.37-6.84c-3.96-1.59-8.35-2.4-13.05-2.4
			c-5.05,0-9.77,1-14.03,2.96c-4.25,1.96-7.96,4.62-11.03,7.92c-3.06,3.29-5.48,7.17-7.18,11.53c-1.71,4.35-2.58,9.02-2.58,13.85
			c0,5.12,0.84,9.82,2.51,13.97c1.67,4.14,3.97,7.73,6.86,10.65s6.37,5.21,10.35,6.81c3.98,1.6,8.35,2.41,13.01,2.41
			c5.04,0,9.75-1.07,13.98-3.18c4.22-2.1,7.92-4.89,11.01-8.29c3.08-3.4,5.51-7.31,7.23-11.62c1.72-4.32,2.6-8.68,2.6-12.98
			c0-5.18-0.83-9.92-2.47-14.08C726.31,114.63,724,111.03,721.09,108.08 M696.11,100.66c3.58,0,6.85,1.01,9.72,3.01
			c2.89,2.01,5.38,4.66,7.39,7.88c2.02,3.23,3.58,6.93,4.64,11.02c1.06,4.09,1.59,8.27,1.59,12.4c0,9.91-1.87,17.78-5.57,23.41
			c-3.67,5.58-9.08,8.41-16.08,8.41c-3.84,0-7.27-0.99-10.18-2.95c-2.94-1.97-5.47-4.6-7.52-7.81c-2.07-3.22-3.65-6.91-4.7-10.95
			c-1.06-4.05-1.59-8.15-1.59-12.2c0-4.87,0.45-9.33,1.33-13.26c0.88-3.91,2.24-7.32,4.04-10.12c1.79-2.79,4.12-4.99,6.91-6.52
			C688.89,101.44,692.26,100.66,696.11,100.66"/>
	</g>
	<g>
		<defs>
			<rect id="SVGID_21_" width="1026.99" height="210.3"/>
		</defs>
		<clipPath id="SVGID_22_">
			<use xlink:href="#SVGID_21_"  style="overflow:visible;"/>
		</clipPath>
		<path style="clip-path:url(#SVGID_22_);" d="M766.51,165.82c-1.83,0-3.28-0.16-4.31-0.48c-0.99-0.3-1.72-0.89-2.23-1.81
			c-0.52-0.93-0.85-2.27-0.97-3.98c-0.13-1.74-0.2-4.07-0.2-6.93v-52.59c0-0.76-0.98-1.05-1.3-1.15c-0.87-0.26-1.38-0.26-1.6-0.02
			c-2.55,1.72-5.14,3.25-7.71,4.53c-2.55,1.28-5.55,2.28-8.95,2.98c-0.66,0.23-0.8,0.63-0.8,0.93c0,0.1,0.03,0.21,0.1,0.34l0,0
			c0.14,0.29,0.5,0.75,1.35,0.52c1.64-0.41,3.01-0.64,4.08-0.68c1.01-0.05,1.81,0.2,2.4,0.73c0.6,0.54,1.04,1.5,1.32,2.86
			c0.28,1.41,0.42,3.37,0.42,5.82v35.73c0,2.8-0.08,5.12-0.23,6.9c-0.15,1.74-0.48,3.09-0.98,4.02c-0.48,0.91-1.22,1.5-2.25,1.8
			c-1.08,0.32-2.55,0.48-4.38,0.48c-0.43,0-0.73,0.1-0.93,0.31c-0.1,0.11-0.22,0.31-0.21,0.62c0.02,0.27,0.16,0.89,1.14,0.89
			c0.97,0,2.14-0.02,3.47-0.06c2.76-0.09,5.52-0.05,7.63-0.13c1.08-0.04,1.87-0.07,2.39-0.07s1.28,0.02,2.29,0.07
			c1.98,0.08,4.57,0.04,7.1,0.13c1.23,0.04,2.36,0.06,3.37,0.06c0.99,0,1.1-0.63,1.1-0.91C767.61,166.45,767.5,165.82,766.51,165.82
			"/>
	</g>
	<g>
		<defs>
			<rect id="SVGID_23_" width="1026.99" height="210.3"/>
		</defs>
		<clipPath id="SVGID_24_">
			<use xlink:href="#SVGID_23_"  style="overflow:visible;"/>
		</clipPath>
		<path style="clip-path:url(#SVGID_24_);" d="M752.9,87.93c2.02,0,3.78-0.7,5.22-2.08c1.45-1.38,2.18-3.12,2.18-5.16
			c0-2.04-0.73-3.8-2.17-5.25s-3.2-2.18-5.23-2.18c-2.05,0-3.8,0.74-5.19,2.19c-1.39,1.45-2.09,3.21-2.09,5.25s0.7,3.77,2.09,5.16
			C749.11,87.23,750.85,87.93,752.9,87.93"/>
	</g>
	<g>
		<defs>
			<rect id="SVGID_25_" width="1026.99" height="210.3"/>
		</defs>
		<clipPath id="SVGID_26_">
			<use xlink:href="#SVGID_25_"  style="overflow:visible;"/>
		</clipPath>
		<path style="clip-path:url(#SVGID_26_);" d="M962.74,140.5c-1.35-2.13-3.13-3.98-5.31-5.5c-2.16-1.51-4.67-2.81-7.45-3.88
			c-2.71-1.04-5.49-2.09-8.27-3.1c-2.67-0.9-5.3-1.85-7.82-2.83c-2.5-0.97-4.75-2.08-6.7-3.3c-1.94-1.21-3.51-2.62-4.68-4.19
			c-1.15-1.54-1.73-3.45-1.73-5.67c0-3.34,1.66-6.08,4.94-8.13c3.33-2.09,7.77-3.14,13.21-3.14c7.69,0,13.17,2.22,16.29,6.59
			c3.14,4.41,4.74,10.67,4.74,18.62c0,0.99,0.61,1.1,0.88,1.1c0.26,0,0.88-0.11,0.88-1.1c0-1.17,0.04-2.85,0.13-5.01
			c0.09-2.17,0.15-4.45,0.2-6.8c0.04-2.35,0.11-4.61,0.2-6.72c0.09-2.17,0.13-3.75,0.13-4.84c0-0.81-0.42-1.32-1.19-1.43
			c-1.95-0.26-3.7-0.54-5.2-0.85c-1.53-0.31-3.15-0.55-4.79-0.72c-1.66-0.18-3.47-0.33-5.36-0.46c-1.91-0.13-4.27-0.2-7.01-0.2
			c-2.8,0-5.72,0.4-8.67,1.19c-2.96,0.79-5.68,2.02-8.09,3.65c-2.42,1.64-4.43,3.75-5.97,6.3c-1.55,2.55-2.33,5.64-2.33,9.18
			c0,2.7,0.67,5.07,1.98,7.02c1.3,1.94,3.06,3.67,5.24,5.17c2.16,1.48,4.61,2.78,7.28,3.84c2.65,1.06,5.45,2.04,8.31,2.9
			c2.66,0.92,5.31,1.85,7.86,2.77c2.56,0.92,4.84,2.01,6.76,3.23c1.91,1.21,3.49,2.64,4.68,4.25c1.17,1.59,1.76,3.52,1.76,5.74
			c0,1.82-0.29,3.54-0.86,5.1c-0.57,1.55-1.52,2.92-2.85,4.07c-1.33,1.16-3.12,2.1-5.31,2.8c-2.2,0.7-4.92,1.06-8.09,1.06
			c-4.64,0-8.6-0.62-11.77-1.84c-3.15-1.21-5.69-3.06-7.56-5.5c-1.88-2.45-3.23-5.48-4.02-9c-0.8-3.54-1.2-7.76-1.2-12.54
			c0-0.05-0.01-0.07-0.01-0.12c0.45-0.93,0.89-1.87,1.3-2.8c0.2-0.4,0.29-0.72,0.29-0.93c0.09-0.46-0.16-0.7-0.4-0.75
			c-0.53-0.2-1.02,0.19-1.45,1.14c-1.86,4.01-3.89,7.63-6.04,10.76c-2.15,3.12-4.6,5.83-7.28,8.06c-2.68,2.23-5.69,3.97-8.95,5.17
			s-6.95,1.81-10.99,1.81c-4.47,0-8.7-0.76-12.58-2.26s-7.3-3.58-10.15-6.17c-2.85-2.59-5.13-5.69-6.78-9.2s-2.48-7.33-2.48-11.35
			c0-3.44,0.33-6.8,0.98-9.99h45.43c2.16,0,3.61-0.42,4.44-1.3c0.8-0.85,1.3-1.91,1.49-3.18c0.04-0.36,0.07-0.76,0.07-1.17
			c0-1.28-0.22-2.74-0.66-4.37c-0.58-2.12-1.77-4.15-3.53-6.04c-1.77-1.89-4.25-3.49-7.39-4.78s-7.18-1.94-12.03-1.94
			c-4.68,0-9.32,1.02-13.77,3.03c-4.46,2.01-8.48,4.76-11.97,8.19s-6.35,7.48-8.49,12.04c-2.14,4.57-3.23,9.43-3.23,14.46
			c0,2.36,0.21,4.65,0.61,6.85c-3.25,5.68-7.01,10.01-11.2,12.85c-4.39,2.97-9.76,4.48-15.98,4.48c-4.51,0-8.66-0.76-12.35-2.26
			c-3.68-1.5-6.88-3.64-9.48-6.36c-2.62-2.72-4.7-5.95-6.2-9.59s-2.26-7.71-2.26-12.08c0-4.47,0.62-8.49,1.84-11.97
			c1.22-3.47,2.91-6.45,5.03-8.87c2.11-2.41,4.61-4.25,7.43-5.47s5.89-1.83,9.14-1.83c3.14,0,5.79,0.63,7.86,1.88
			c2.09,1.26,3.92,2.7,5.42,4.29c1.51,1.6,2.86,3.06,4.01,4.33c1.21,1.35,2.6,2.03,4.12,2.03c2.22,0,3.93-0.66,5.1-1.97
			c1.16-1.29,1.75-2.59,1.75-3.84s-0.59-2.52-1.75-3.78c-1.13-1.22-2.71-2.32-4.7-3.27c-1.97-0.94-4.36-1.73-7.09-2.34
			c-2.73-0.61-5.8-0.92-9.11-0.92c-4.9,0-9.72,1.06-14.33,3.16c-4.6,2.1-8.73,4.93-12.27,8.42c-3.54,3.49-6.41,7.54-8.55,12.04
			c-2.15,4.5-3.23,9.25-3.23,14.11c0,4.76,0.79,9.17,2.34,13.11c1.55,3.94,3.81,7.39,6.7,10.26s6.34,5.11,10.26,6.66
			c3.91,1.55,8.32,2.34,13.08,2.34c3.68,0,7.34-0.68,10.88-2.01c3.53-1.33,6.93-3.15,10.09-5.43c3.16-2.27,6.1-5.01,8.74-8.15
			c1.96-2.34,3.73-4.79,5.27-7.32c0.32,1.22,0.7,2.42,1.16,3.58c1.55,3.96,3.84,7.43,6.8,10.3c2.96,2.87,6.57,5.13,10.75,6.73
			c4.17,1.6,8.88,2.4,13.99,2.4s9.86-1,14.1-2.97c4.23-1.96,8.14-4.54,11.63-7.66c3.48-3.11,6.59-6.74,9.22-10.77
			c1.33-2.03,2.55-4.08,3.67-6.14c-0.02,3.25-0.06,6.01-0.12,8.21c-0.09,2.85-0.17,5.14-0.26,6.8c-0.09,1.67-0.17,2.85-0.26,3.6
			c-0.09,0.76-0.13,1.42-0.13,1.96c0,1.35,0.4,2.09,1.15,2.2c1.34,0.34,2.8,0.79,4.35,1.33c1.58,0.55,3.41,1.09,5.45,1.6
			c2.04,0.52,4.38,0.96,6.96,1.31c2.57,0.35,5.64,0.52,9.12,0.52c3.41,0,6.62-0.52,9.54-1.55s5.5-2.48,7.67-4.32
			c2.18-1.85,3.92-4.07,5.17-6.62c1.26-2.55,1.89-5.36,1.89-8.35C964.78,145.24,964.1,142.65,962.74,140.5 M851.84,119.9
			c1.77-5.7,4.73-10.05,8.79-12.93c4.17-2.95,9.17-4.44,14.86-4.44c2.51,0,4.74,0.39,6.6,1.14c1.87,0.76,3.45,1.74,4.7,2.92
			c1.25,1.17,2.19,2.46,2.8,3.82s0.92,2.65,0.92,3.85c0,1.86-0.37,3.2-1.1,4.01c-0.03,0.04-0.28,0.26-1.89,0.67
			c-1.16,0.29-2.25,0.44-3.22,0.44c-2.09,0-4.35,0.02-6.7,0.07c-2.27,0.04-4.68,0.1-7.38,0.19c-2.57,0.09-5.45,0.15-8.54,0.19
			C858.71,119.87,855.4,119.89,851.84,119.9"/>
	</g>
</g>
</svg>
